P3           3 3        255        255 200   0    0 255   0    0   0 255  255 255   0  255 255 255    0   0   0 255 100  10  0   0   0  0  12  10