P224 7150  1  1  1  1  0  0  2  3  3  3  1  0  3  4  5  5  1  0  5  6  7  7  31  2  1  1  0  0  1  4  3  3  1  0  2  6  5  5  2  0  3  9  7  7  7  31  1  1  1  0  0  2  3  3  3  1  0  3  5  5  5  1  0  4  7  7 11  8  31  2  1  0  0  0  2  4  3  1  0  0  3  7  5  2  0  0  4 10  8  8  4  21  1  0  0  0  0  2  3  3  2  2  0  3  5  5  4  3  0  4  7  3  2  1  11  0  0  0  0  0  2  3  3  3  1  0  3  4  5  5  2  0  4  2  1  0  0  00  0  0  0  0  0  0  1  1  1  0  0  1  1  2  2  1  0  1  1  0  0  0  0